<?xml version="1.0" standalone="no"?>
<!DOCTYPE svg PUBLIC "-//W3C//DTD SVG 20010904//EN"
 "http://www.w3.org/TR/2001/REC-SVG-20010904/DTD/svg10.dtd">
<svg version="1.0" xmlns="http://www.w3.org/2000/svg"
 width="632.000000pt" height="632.000000pt" viewBox="0 0 632.000000 632.000000"
 preserveAspectRatio="xMidYMid meet">
<metadata>
Created by potrace 1.14, written by Peter Selinger 2001-2017
</metadata>
<g transform="translate(0.000000,632.000000) scale(0.100000,-0.100000)"
fill="#000000" stroke="none">
<path d="M208 6055 c-2 -2 -32 -5 -67 -6 -45 -2 -70 -8 -82 -20 -9 -9 -26 -20
-37 -23 -19 -6 -20 -15 -19 -189 0 -101 4 -192 8 -203 4 -10 8 -13 8 -5 1 9 9
11 24 7 17 -4 29 2 50 29 15 19 27 45 27 58 0 72 69 42 77 -34 8 -68 -16 -115
-70 -139 -41 -18 -43 -22 -39 -52 2 -18 13 -43 24 -55 20 -21 20 -21 -1 -33
l-22 -11 25 -29 c33 -40 23 -78 -18 -71 -37 7 -98 -93 -91 -150 4 -34 35 -69
61 -69 22 0 30 24 50 140 9 51 15 57 30 27 9 -17 26 -30 44 -33 44 -9 73 -41
65 -73 -20 -86 -21 -100 -8 -132 7 -19 29 -45 48 -58 25 -17 33 -29 31 -45 -3
-11 -5 -23 -5 -26 -1 -3 -11 -17 -24 -32 -36 -41 -58 -39 -82 7 -12 22 -26 39
-31 38 -11 -4 -13 -24 -3 -38 6 -9 11 -38 24 -155 11 -90 18 -111 41 -126 27
-18 27 -44 0 -76 l-18 -21 -23 29 c-27 34 -41 26 -49 -26 -3 -24 -20 -49 -59
-87 -42 -41 -54 -59 -50 -76 4 -21 4 -21 -11 -3 -9 11 -19 16 -23 12 -5 -4 -9
-916 -11 -2027 l-4 -2019 3161 0 3161 0 0 2900 0 2901 -3054 -1 c-1680 -1
-3056 -3 -3058 -5z m3462 -869 c111 -8 130 -12 216 -45 123 -48 241 -137 346
-262 21 -24 38 -48 38 -52 0 -5 8 -21 18 -35 18 -26 61 -125 66 -153 23 -118
25 -137 32 -264 3 -66 9 -123 13 -127 3 -4 26 8 51 28 24 19 71 48 104 63 96
45 165 53 451 54 319 0 372 -8 435 -72 52 -53 71 -96 86 -191 5 -32 4 -280 -1
-345 -3 -38 -9 -54 -26 -65 -44 -29 -87 -20 -111 23 -8 15 -12 90 -14 225 l-2
203 -40 39 -40 38 -259 -4 c-231 -3 -315 -7 -363 -17 -66 -14 -216 -142 -244
-208 -16 -38 -5 -54 25 -38 42 22 777 34 808 13 13 -10 18 -27 20 -70 1 -31 4
-61 7 -65 7 -11 39 -10 -391 -14 -203 -2 -377 -5 -385 -7 -56 -17 -88 -41
-102 -78 -15 -40 -20 -168 -21 -641 -1 -495 -5 -466 66 -530 l30 -28 646 0
646 0 37 38 c20 21 42 56 48 77 10 33 24 328 20 429 -1 37 -1 41 0 90 1 22 -1
146 -3 277 -3 227 -4 238 -28 284 -30 59 -79 87 -156 89 -30 1 -58 7 -62 13
-7 12 -4 105 4 130 5 15 90 11 150 -7 56 -16 132 -60 159 -92 26 -30 71 -109
63 -109 -3 0 1 -25 8 -55 7 -30 9 -57 4 -60 -4 -3 -5 -16 0 -28 13 -36 7 -945
-7 -993 -12 -40 -80 -147 -111 -172 -38 -31 -101 -51 -181 -58 -101 -8 -1098
-9 -1188 0 -119 11 -141 21 -217 101 l-70 74 -25 -18 c-40 -29 -122 -70 -155
-76 -86 -16 -242 -19 -905 -19 -937 0 -919 -1 -1046 95 -28 22 -55 39 -61 39
-5 0 -19 -18 -31 -39 -26 -46 -104 -118 -147 -137 -55 -23 -136 -26 -727 -26
-570 -1 -686 4 -722 32 -113 88 -144 146 -153 281 -12 185 -8 991 5 1047 29
129 201 249 336 236 22 -3 41 -5 42 -7 2 -1 5 -35 8 -75 5 -63 3 -72 -12 -73
-81 -4 -106 -9 -139 -26 -41 -21 -78 -76 -88 -133 -8 -40 -8 -862 -1 -959 9
-105 52 -150 161 -167 64 -9 1070 -13 1113 -3 17 4 32 3 32 -1 0 -12 102 20
124 39 50 44 50 38 51 607 l2 532 -46 52 -46 51 -375 4 c-206 2 -387 4 -402 4
l-28 1 6 72 c3 40 7 75 10 77 10 10 786 -3 827 -14 l29 -8 -21 42 c-30 58
-116 144 -181 180 -68 37 -107 41 -438 45 l-242 3 -41 -40 -40 -40 1 -116 c1
-192 -5 -294 -20 -318 -18 -28 -55 -37 -91 -22 -38 15 -42 40 -43 288 l-1 204
38 57 c52 80 149 138 232 140 252 3 453 2 502 -3 124 -13 250 -70 338 -152 55
-51 55 -51 74 40 7 33 26 88 42 122 30 62 111 156 152 173 12 6 37 19 55 30
17 11 32 17 32 14 0 -3 6 -2 13 3 17 10 28 12 140 17 86 5 97 3 98 -12 1 -41
-3 -177 -6 -180 -1 -2 -34 -5 -72 -7 -86 -5 -149 -31 -192 -80 -37 -43 -49
-70 -56 -128 -4 -37 -6 -697 -4 -1207 l1 -185 30 -46 c33 -49 78 -85 125 -98
16 -5 86 -10 154 -11 217 -5 1360 -1 1473 4 98 5 112 8 145 33 63 48 90 97 99
182 9 81 7 1244 -1 1320 -12 102 -59 173 -128 191 -69 19 -265 25 -881 30
-144 1 -198 5 -199 13 0 7 -3 51 -5 98 l-4 86 527 -3 c522 -3 579 -5 621 -18
27 -9 29 11 6 57 -51 99 -154 197 -259 247 -121 57 -160 62 -545 62 -362 0
-403 -6 -448 -69 -30 -42 -33 -72 -36 -348 -3 -262 -5 -279 -49 -308 -59 -38
-126 -16 -148 50 -14 42 -18 383 -7 514 14 155 82 263 203 324 41 20 70 26
165 31 63 3 116 7 117 7 4 5 489 -2 563 -7z m-267 -1095 c255 -103 343 -144
355 -169 12 -23 15 -98 14 -389 0 -338 24 -300 -285 -443 -133 -61 -249 -115
-257 -119 -8 -4 -40 -7 -70 -6 -60 1 -61 2 -365 150 -191 93 -234 121 -236
153 -1 9 -3 33 -5 52 -5 44 -5 514 0 558 5 43 29 69 93 98 28 13 54 24 57 24
3 0 29 11 58 24 105 47 390 155 411 156 5 0 108 -40 230 -89z m-2204 -456 c23
-8 43 -15 46 -15 20 -3 232 -87 293 -116 28 -14 57 -35 63 -46 16 -29 15 -449
0 -486 -9 -22 -38 -40 -139 -89 -294 -142 -284 -139 -369 -104 -174 72 -328
149 -359 179 l-25 25 5 206 c4 187 8 243 21 278 3 10 39 29 150 78 41 18 88
37 100 41 10 3 169 61 171 63 1 1 20 -6 43 -14z m3981 -5 c121 -32 365 -143
381 -171 8 -15 11 -96 12 -245 0 -246 -4 -265 -64 -287 -16 -6 -29 -15 -29
-19 0 -4 -6 -8 -14 -8 -7 0 -34 -11 -60 -25 -82 -43 -259 -117 -281 -117 -43
0 -407 172 -429 203 -11 16 -14 68 -14 239 0 121 3 231 7 246 10 37 98 82 351
177 69 26 71 26 140 7z m215 -1439 c41 -23 73 -73 81 -127 3 -25 5 -47 3 -49
-5 -4 -73 -8 -111 -6 -20 1 -29 7 -34 26 -8 34 -33 53 -44 35 -18 -29 1 -64
78 -145 96 -100 106 -119 109 -204 3 -129 -26 -189 -102 -210 -44 -12 -118 -5
-155 14 -54 28 -90 111 -87 200 l2 40 74 0 75 0 0 -50 c1 -66 16 -91 44 -76
38 21 5 110 -74 196 -63 69 -100 124 -112 167 -5 20 -9 38 -7 40 2 2 5 17 8
34 10 65 52 119 103 133 41 11 114 2 149 -18z m-4790 2 c24 -13 62 -53 50 -53
-4 0 -1 -7 6 -16 17 -20 22 -183 8 -239 -19 -72 -66 -105 -149 -105 l-38 0 -1
-122 c-1 -68 -2 -131 -2 -140 0 -15 -9 -17 -64 -15 -35 1 -67 5 -70 9 -6 6
-15 678 -9 689 6 11 248 3 269 -8z m539 -12 c13 -13 29 -41 35 -64 12 -50 8
-196 -6 -205 -19 -13 -20 -37 -5 -72 10 -25 15 -74 15 -178 0 -78 -3 -145 -6
-148 -5 -5 -67 -8 -112 -5 -19 1 -20 9 -22 122 -2 142 -9 189 -28 189 -24 0
-27 -18 -28 -171 l0 -150 -65 3 c-35 1 -66 7 -70 13 -3 5 -8 129 -9 275 -4
295 -4 272 -3 357 l1 61 140 -2 c129 -3 141 -5 163 -25z m348 5 c2 -11 3 -169
2 -351 l0 -330 -62 -1 c-34 0 -62 2 -63 5 -1 3 -3 143 -5 311 -2 168 -4 319
-5 337 -1 17 1 36 4 40 3 5 33 10 66 10 53 0 60 -2 63 -21z m324 -15 c4 -20 9
-43 11 -51 5 -23 12 -60 19 -107 11 -72 19 -48 19 55 -1 147 -5 139 76 139 44
0 69 -4 70 -11 5 -65 -3 -686 -10 -687 -3 0 -30 -2 -60 -3 -59 -2 -80 11 -82
47 -1 27 -3 39 -19 97 -11 40 -18 71 -24 107 -6 36 -12 13 -14 -60 -4 -119 -8
-173 -15 -183 -5 -9 -114 -10 -123 -1 -6 5 -13 678 -8 687 1 3 36 6 77 7 l75
1 8 -37z m664 -28 c0 -35 -3 -63 -7 -64 -27 -3 -68 -11 -71 -14 -2 -2 -4 -127
-5 -279 -1 -175 -6 -276 -12 -277 -46 -5 -118 -3 -122 4 -2 4 -6 126 -8 270
-2 144 -4 269 -4 279 -1 12 -8 15 -29 12 -17 -3 -34 1 -40 8 -8 10 -10 87 -3
119 0 3 69 6 151 6 l150 -1 0 -63z m1309 53 c10 -12 21 -78 36 -221 10 -93 16
-140 21 -144 12 -12 15 7 30 159 3 36 8 79 10 95 1 17 4 49 5 72 2 48 7 51 69
49 57 -2 69 -10 65 -44 -1 -15 -6 -58 -10 -95 -3 -37 -8 -77 -10 -88 -2 -11
-7 -47 -10 -80 -4 -33 -8 -68 -10 -77 -1 -9 -6 -42 -10 -72 -11 -92 -22 -169
-31 -214 -5 -28 -9 -30 -77 -34 -92 -6 -113 6 -121 65 -16 108 -16 109 -31
228 -3 28 -8 61 -11 75 -3 13 -8 47 -10 75 -3 27 -7 64 -9 80 -15 136 -16 168
-7 174 20 12 100 10 111 -3z m690 -56 l2 -67 -71 1 c-38 0 -71 -1 -72 -4 0 -3
-2 -30 -3 -60 -3 -58 8 -85 31 -72 7 4 33 6 57 4 l44 -4 -1 -64 c0 -35 -3 -65
-6 -65 -3 -1 -29 -3 -58 -4 -29 -1 -55 -5 -58 -7 -2 -3 -6 -37 -9 -77 l-4 -71
32 -1 c18 -1 50 -2 72 -3 l40 -1 1 -63 c1 -49 -3 -65 -15 -70 -13 -6 -157 -8
-247 -3 -22 1 -22 3 -24 254 -1 138 -2 290 -4 337 -1 47 1 90 6 96 4 6 60 10
146 11 l139 0 2 -67z m451 56 c36 -15 50 -58 54 -166 3 -78 -4 -111 -29 -136
-13 -13 -12 -19 4 -50 16 -30 19 -59 20 -185 1 -115 -1 -149 -11 -150 -47 -4
-118 -3 -119 1 -1 3 -3 34 -4 70 -10 202 -21 258 -48 231 -4 -4 -10 -72 -12
-151 -2 -78 -6 -145 -9 -147 -3 -3 -32 -6 -65 -7 -46 -1 -61 2 -63 14 -2 8 -3
144 -3 302 0 159 -4 288 -8 288 -5 0 -5 5 -2 10 3 6 6 28 7 49 l0 39 137 -3
c75 -1 143 -5 151 -9z m1014 -10 c3 -11 4 -42 3 -67 l-1 -46 -73 1 -73 1 0
-66 0 -66 61 -2 c34 -1 64 -3 68 -5 8 -5 6 -114 -2 -123 -7 -6 -37 -10 -92
-12 l-30 -1 0 -77 0 -76 70 -1 70 -1 -3 -64 c-1 -36 -5 -67 -8 -70 -7 -7 -263
-6 -270 1 -5 6 -14 678 -8 688 1 3 66 6 143 7 137 1 141 0 145 -21z"/>
<path d="M3075 3926 c-104 -40 -111 -44 -122 -57 -9 -11 6 -22 75 -56 85 -41
114 -53 139 -59 7 -1 57 20 112 47 70 34 99 53 95 63 -8 21 -140 77 -193 82
-33 3 -63 -3 -106 -20z"/>
<path d="M2767 3687 c-2 -7 -5 -50 -6 -97 0 -47 -1 -94 -1 -105 -1 -11 0 -45
0 -75 l1 -56 97 -43 c156 -70 159 -71 181 -71 24 0 24 -1 23 189 0 68 -4 127
-9 131 -13 12 -194 104 -240 123 -31 12 -42 13 -46 4z"/>
<path d="M3459 3657 c-47 -23 -109 -52 -137 -65 -31 -14 -52 -30 -53 -40 -3
-50 2 -305 6 -312 9 -15 60 3 205 75 36 17 69 32 75 32 17 2 20 31 18 179 -2
147 -5 175 -20 173 -4 0 -47 -19 -94 -42z"/>
<path d="M1098 3465 c-99 -35 -100 -36 -88 -50 5 -6 41 -26 79 -44 65 -30 73
-31 110 -20 23 7 41 16 41 21 0 4 7 8 15 8 22 0 75 29 75 40 0 6 -3 9 -7 8 -5
-1 -28 7 -53 18 -91 42 -103 44 -172 19z"/>
<path d="M875 3288 c-3 -7 -6 -63 -8 -124 l-3 -112 86 -41 c79 -39 128 -51
131 -33 1 4 2 55 4 114 l2 108 -96 46 c-53 26 -99 49 -104 51 -4 2 -9 -2 -12
-9z"/>
<path d="M1360 3254 c-41 -19 -83 -38 -92 -41 -10 -3 -19 -10 -19 -17 -4 -34
-5 -213 -2 -223 5 -14 77 9 164 52 l56 28 -2 101 c-3 136 -3 136 -17 136 -7 0
-47 -16 -88 -36z"/>
<path d="M5041 3461 c-36 -15 -66 -32 -68 -38 -3 -9 42 -42 67 -48 3 -1 22 -9
43 -19 23 -10 47 -14 60 -10 37 11 147 67 147 74 0 12 -111 54 -166 64 -10 2
-48 -9 -83 -23z"/>
<path d="M4834 3275 c-3 -14 -7 -69 -8 -122 l-1 -98 30 -19 c16 -10 34 -19 40
-21 5 -1 32 -12 58 -24 26 -12 58 -21 70 -19 21 3 22 8 23 114 l1 112 -77 41
c-119 63 -129 65 -136 36z"/>
<path d="M5316 3254 c-49 -24 -94 -48 -100 -53 -12 -10 -14 -182 -2 -218 8
-26 25 -22 136 30 l76 36 -2 113 c-1 134 -2 138 -11 137 -5 0 -48 -20 -97 -45z"/>
<path d="M486 2061 c-8 -12 -2 -138 7 -147 26 -26 63 88 43 134 -9 22 -40 30
-50 13z"/>
<path d="M988 2037 c-6 -52 5 -83 28 -79 26 5 26 5 29 49 3 51 -3 63 -30 63
-18 0 -24 -6 -27 -33z"/>
<path d="M4788 2043 c-5 -38 5 -86 18 -90 34 -11 60 77 32 105 -21 21 -45 14
-50 -15z"/>
<path d="M38 5434 c-3 -3 -4 -14 -1 -25 4 -15 9 -17 19 -8 7 6 10 17 7 25 -5
15 -16 18 -25 8z"/>
</g>
</svg>
